<svg width="640" height="426" viewBox="0 0 640 426" fill="none" xmlns="http://www.w3.org/2000/svg">
<g clip-path="url(#clip0_53_37)">
<rect width="640" height="426" fill="#D9D9D9"/>
<path d="M187.305 108.175H234.133C235.564 108.175 236.735 109.345 236.735 110.776V123.784H184.704V110.776C184.704 109.345 185.874 108.175 187.305 108.175ZM169.094 110.776V123.784H148.282C136.802 123.784 127.469 133.117 127.469 144.597V175.815H189.907H231.532H293.969V144.597C293.969 133.117 284.636 123.784 273.157 123.784H252.344V110.776C252.344 100.728 244.182 92.5653 234.133 92.5653H187.305C177.257 92.5653 169.094 100.728 169.094 110.776ZM293.969 186.222H231.532V196.628C231.532 202.384 226.881 207.034 221.125 207.034H200.313C194.557 207.034 189.907 202.384 189.907 196.628V186.222H127.469V227.847C127.469 239.326 136.802 248.659 148.282 248.659H273.157C284.636 248.659 293.969 239.326 293.969 227.847V186.222Z" fill="black" fill-opacity="0.75"/>
<g clip-path="url(#clip1_53_37)">
<path d="M428.882 179.549C425.914 177.571 422.068 177.571 419.1 179.549L381.761 204.442H349.258C341.977 204.442 336.069 210.349 336.069 217.63V305.552C336.069 312.833 341.977 318.74 349.258 318.74H406.407V292.363C406.407 282.664 414.292 274.779 423.991 274.779C433.69 274.779 441.575 282.664 441.575 292.363V318.74H498.724C506.005 318.74 511.913 312.833 511.913 305.552V217.63C511.913 210.349 506.005 204.442 498.724 204.442H466.221L428.882 179.549ZM362.446 230.818H371.238C373.656 230.818 375.634 232.796 375.634 235.214V252.799C375.634 255.216 373.656 257.195 371.238 257.195H362.446C360.028 257.195 358.05 255.216 358.05 252.799V235.214C358.05 232.796 360.028 230.818 362.446 230.818ZM472.348 235.214C472.348 232.796 474.326 230.818 476.744 230.818H485.536C487.954 230.818 489.932 232.796 489.932 235.214V252.799C489.932 255.216 487.954 257.195 485.536 257.195H476.744C474.326 257.195 472.348 255.216 472.348 252.799V235.214ZM362.446 265.987H371.238C373.656 265.987 375.634 267.965 375.634 270.383V287.967C375.634 290.385 373.656 292.363 371.238 292.363H362.446C360.028 292.363 358.05 290.385 358.05 287.967V270.383C358.05 267.965 360.028 265.987 362.446 265.987ZM472.348 270.383C472.348 267.965 474.326 265.987 476.744 265.987H485.536C487.954 265.987 489.932 267.965 489.932 270.383V287.967C489.932 290.385 487.954 292.363 485.536 292.363H476.744C474.326 292.363 472.348 290.385 472.348 287.967V270.383ZM399.813 226.422C399.813 220.01 402.36 213.86 406.894 209.325C411.429 204.791 417.578 202.244 423.991 202.244C430.404 202.244 436.553 204.791 441.088 209.325C445.622 213.86 448.169 220.01 448.169 226.422C448.169 232.835 445.622 238.985 441.088 243.519C436.553 248.053 430.404 250.601 423.991 250.601C417.578 250.601 411.429 248.053 406.894 243.519C402.36 238.985 399.813 232.835 399.813 226.422ZM423.991 213.234C421.573 213.234 419.595 215.212 419.595 217.63V226.422C419.595 228.84 421.573 230.818 423.991 230.818H432.783C435.201 230.818 437.179 228.84 437.179 226.422C437.179 224.004 435.201 222.026 432.783 222.026H428.387V217.63C428.387 215.212 426.409 213.234 423.991 213.234Z" fill="black" fill-opacity="0.5"/>
</g>
<path fill-rule="evenodd" clip-rule="evenodd" d="M377.049 -26H-7V445H260.917L377.049 -26Z" fill="#3ECDBC" fill-opacity="0.5"/>
</g>
<defs>
<clipPath id="clip0_53_37">
<rect width="640" height="426" fill="white"/>
</clipPath>
<clipPath id="clip1_53_37">
<rect width="175.843" height="140.675" fill="white" transform="translate(336.069 178.065)"/>
</clipPath>
</defs>
</svg>
